<?xml version="1.0" encoding="UTF-8" standalone="no"?>
<!-- Uploaded to: SVG Repo, www.svgrepo.com, Generator: SVG Repo Mixer Tools -->

<svg
   width="800px"
   height="800px"
   viewBox="0 0 48 48"
   id="Layer_2"
   data-name="Layer 2"
   version="1.1"
   sodipodi:docname="cyberghost.svg"
   inkscape:version="1.3 (0e150ed6c4, 2023-07-21)"
   xmlns:inkscape="http://www.inkscape.org/namespaces/inkscape"
   xmlns:sodipodi="http://sodipodi.sourceforge.net/DTD/sodipodi-0.dtd"
   xmlns="http://www.w3.org/2000/svg"
   xmlns:svg="http://www.w3.org/2000/svg">
  <sodipodi:namedview
     id="namedview1"
     pagecolor="#ffffff"
     bordercolor="#000000"
     borderopacity="0.25"
     inkscape:showpageshadow="2"
     inkscape:pageopacity="0.0"
     inkscape:pagecheckerboard="0"
     inkscape:deskcolor="#d1d1d1"
     inkscape:zoom="1.29875"
     inkscape:cx="399.61501"
     inkscape:cy="400"
     inkscape:window-width="2552"
     inkscape:window-height="1243"
     inkscape:window-x="2560"
     inkscape:window-y="165"
     inkscape:window-maximized="0"
     inkscape:current-layer="Layer_2" />
  <defs
     id="defs1">
    <style
       id="style1">.cls-1{fill:none;stroke:#000000;stroke-linecap:round;stroke-linejoin:round;}</style>
  </defs>
  <path
     class="cls-1"
     d="M38.89,22.71c-.56-3.83,0-2.36-.48-5.85-.82-5.84-7-12.67-15.3-12.35C10,5,8.1,16.3,8.1,22.68c0,2.65-.86,6.33-.57,11.85C8,43.3,8.91,44.19,21.61,43.15c16.91-1.37,18.86-8.11,19-11.78S39.29,25.47,38.89,22.71ZM20.24,28.87c-3.79,0-5.75-4.6-5.75-8.31s2.41-7.75,5.75-7.75c3.64,0,5.62,4.28,5.62,7.9C25.86,24.53,24,28.87,20.24,28.87Zm13.11-3.28c-2.79,0-4.22-3.34-4.22-6s1.77-5.64,4.22-5.64c2.68,0,4.13,3.11,4.13,5.74C37.48,22.43,36.14,25.59,33.35,25.59Z"
     id="path1" />
  <path
     style="fill:#ffffff;stroke-width:0.769971"
     d="m 229.4514,715.61831 c -1.69394,-0.16806 -7.06449,-0.68299 -11.93456,-1.14428 -38.85208,-3.68005 -58.59747,-15.82904 -69.343,-42.66551 -9.89976,-24.72423 -15.21527,-78.42916 -14.35616,-145.04676 0.45326,-35.14752 1.00437,-43.83801 5.93904,-93.653 2.44318,-24.6637 3.28586,-37.12659 3.85256,-56.97786 0.39895,-13.97498 1.09882,-30.25987 1.55527,-36.18865 3.12206,-40.55233 11.41932,-78.92676 24.01775,-111.08088 4.39152,-11.20815 15.58467,-33.47518 21.6542,-43.07764 32.05044,-50.70619 80.14313,-83.0849 142.0801,-95.656299 72.48864,-14.71308 135.27634,-3.646963 191.62942,33.774029 45.76076,30.38722 81.9239,76.17598 98.6112,124.85879 7.81847,22.80925 10.7099,41.85884 11.67793,76.93754 0.4882,17.69091 1.13889,27.28294 2.63775,38.88354 3.3986,26.3039 5.07705,33.68741 15.49048,68.14244 11.74713,38.8679 14.1675,51.43487 14.77307,76.70422 0.56114,23.41621 -1.34487,38.19595 -7.1871,55.73082 -23.01563,69.07897 -99.07673,114.84405 -226.42397,136.23664 -31.79383,5.34093 -69.10816,9.16252 -124.98197,12.80019 -16.92843,1.10213 -72.85902,2.10061 -79.69201,1.42267 z M 358.56279,487.14322 c 21.84683,-5.70407 41.32758,-21.04252 55.26431,-43.51314 24.08173,-38.82775 32.10157,-95.29782 20.34393,-143.24774 -12.031,-49.06478 -40.62111,-83.80625 -76.51944,-92.98313 -56.10264,-14.34182 -109.52745,33.56603 -122.94274,110.24695 -1.91573,10.95014 -1.91626,40.38927 -9.6e-4,52.70995 5.47951,35.24844 17.65819,64.74042 35.66215,86.35969 11.93976,14.33733 26.83751,24.61726 42.64711,29.42788 9.88144,3.00678 13.95586,3.49975 26.54012,3.21113 9.26604,-0.21251 13.02372,-0.64978 19.00552,-2.21159 z m 210.67083,-53.31636 c 12.31478,-2.50416 22.90493,-8.41098 32.97421,-18.39189 16.20191,-16.05971 27.031,-41.60265 30.27898,-71.42002 5.6323,-51.70628 -18.39095,-103.04496 -54.29833,-116.03776 -9.07984,-3.28547 -15.27174,-4.18248 -25.66548,-3.71809 -16.47137,0.73594 -29.25999,6.77004 -42.82597,20.20673 -14.74594,14.60541 -25.55074,35.19565 -30.44134,58.01073 -2.30046,10.7319 -2.83957,30.67656 -1.15459,42.71479 5.15247,36.81141 21.84734,66.86591 44.93322,80.88983 5.50334,3.3431 15.45308,7.14709 21.20803,8.10825 6.58219,1.09932 18.66408,0.92404 24.99127,-0.36257 z"
     id="path2"
     transform="scale(0.06)" />
</svg>
